# AST/ASF file generated using VICON BodyLanguage
# -----------------------------------------------
:version 1.10
:name VICON
:units
  mass 1.0
  length 0.45
  angle deg
:documentation
   .ast/.asf automatically generated from VICON data using
   VICON BodyBuilder and BodyLanguage model FoxedUp or BRILLIANT.MOD
:root
   order TX TY TZ RX RY RZ
   axis XYZ
   position 0 0 0  
   orientation 0 0 0 
:bonedata
  begin
     id 1 
     name lhipjoint
     direction 0.624716 -0.669793 0.401383 
     length 2.38238 
     axis 0 0 0  XYZ
  end
  begin
     id 2 
     name lfemur
     direction 0.34202 -0.939693 0  
     length 6.4574  
     axis 0 0 20  XYZ
    dof rx ry rz
    limits (-160.0 20.0)
           (-70.0 70.0)
           (-60.0 70.0)
  end
  begin
     id 3 
     name ltibia
     direction 0.34202 -0.939693 0   
     length 7.68739   
     axis 0 0 20   XYZ
    dof rx
    limits (-10.0 170.0)
  end
  begin
     id 4 
     name lfoot
     direction 0.0681309 -0.187188 0.979959   
     length 2.46615   
     axis -90 7.62852e-016 20   XYZ
    dof rx rz
    limits (-45.0 90.0)
           (-70.0 20.0)
  end
  begin
     id 5 
     name ltoes
     direction 1.53566e-011 -4.21819e-011 1   
     length 1.2376   
     axis -90 7.62852e-016 20   XYZ
    dof rx
    limits (-90.0 20.0)
  end
  begin
     id 6 
     name rhipjoint
     direction -0.644473 -0.655875 0.393043   
     length 2.43293  
     axis 0 0 0  XYZ 
  end
  begin
     id 7 
     name rfemur
     direction -0.34202 -0.939693 0   
     length 6.7025   
     axis 0 0 -20   XYZ
    dof rx ry rz
    limits (-160.0 20.0)
           (-70.0 70.0)
           (-70.0 60.0)
  end
  begin
     id 8 
     name rtibia
     direction -0.34202 -0.939693 0   
     length 7.80547   
     axis 0 0 -20   XYZ
    dof rx
    limits (-10.0 170.0)
 end
 begin
     id 9 
     name rfoot
     direction -0.0756734 -0.207911 0.975216   
     length 2.40315  
     axis -90 -7.62852e-016 -20   XYZ
    dof rx rz
    limits (-45.0 90.0)
           (-20.0 70.0)
  end
  begin
     id 10 
     name rtoes
     direction -1.5353e-011 -4.21879e-011 1   
     length 1.20477   
     axis -90 -7.62852e-016 -20   XYZ
    dof rx
    limits (-90.0 20.0)
  end
  begin
     id 11 
     name lowerback
     direction 0.0160353 0.987463 -0.157037   
     length 2.18572   
     axis 0 0 0   XYZ
    dof rx ry rz
    limits (-20.0 45.0)
           (-30.0 30.0)
           (-30.0 30.0)
  end
  begin
     id 12 
     name upperback
     direction -0.00499661 0.999756 0.0215076   
     length 2.18016   
     axis 0 0 0   XYZ
    dof rx ry rz
    limits (-20.0 45.0)
           (-30.0 30.0)
           (-30.0 30.0)
  end
  begin
     id 13 
     name thorax
     direction -0.00921346 0.995333 0.0960619   
     length 2.24923   
     axis 0 0 0   XYZ
    dof rx ry rz
    limits (-20.0 45.0)
           (-30.0 30.0)
           (-30.0 30.0)
  end
  begin
     id 14 
     name lowerneck
     direction 0.0274184 0.991181 0.12965   
     length 1.70911   
     axis 0 0 0   XYZ
    dof rx ry rz
    limits (-20.0 45.0)
           (-30.0 30.0)
           (-30.0 30.0)
  end
  begin
     id 15 
     name upperneck
     direction 0.0015627 0.999959 -0.00893559   
     length 1.69312   
     axis 0 0 0   XYZ
    dof rx ry rz
    limits (-20.0 45.0)
           (-30.0 30.0)
           (-30.0 30.0)
  end
  begin
     id 16
     name head
     direction -0.00230242 0.999856 -0.0168327  
     length 1.80241  
     axis 0 0 0   XYZ
    dof rx ry rz
    limits (-20.0 45.0)
           (-30.0 30.0)
           (-30.0 30.0)
  end
  begin
     id 17 
     name lclavicle
     direction 0.955523 0.290741 -0.0494489  
     length 3.84275  
     axis 0 0 0   XYZ
    dof ry rz
    limits (-20.0 10.0)
           (0.0 20.0)
  end
  begin
     id 18 
     name lhumerus
     direction 1 -4.48967e-011 -3.18382e-028   
     length 5.17714   
     axis 180 -30 -90   XYZ
    dof rx ry rz
    limits (-60.0 90.0)
           (-90.0 90.0)
           (-90.0 90.0)
  end
  begin
     id 19
     name lradius
     direction 1 -4.48968e-011 -2.22911e-027   
     length 3.43679   
     axis 180 -30 -90   XYZ
    dof rx
    limits (-10.0 170.0)
  end
  begin
     id 20
     name lwrist
     direction 1 -4.48951e-011 -6.32245e-027   
     length 1.7184   
     axis 3.57107e-015 90 90   XYZ
    dof ry
    limits (-180.0 0.0)
 end
  begin
     id 21 
     name lhand
     direction 1 -4.48924e-011 -1.26431e-026   
     length 0.573117   
     axis 8.06912e-015 90 90   XYZ
    dof rx rz
    limits (-90.0 90.0)
           (-45.0 45.0)
  end
  begin
     id 22 
     name lfingers
     direction 1 -4.49001e-011 -2.52965e-026   
     length 0.462062   
     axis 1.61381e-014 90 90   XYZ
    dof rx
    limits (0.0 90.0)
  end
  begin
     id 23
     name lthumb
     direction 0.707107 -6.35008e-011 0.707107   
     length 0.663431   
     axis -90 45 -1.62303e-014   XYZ
    dof rx rz
    limits (-45.0 45.0)
           (-45.0 45.0)
  end
  begin
     id 24 
     name rclavicle
     direction -0.963917 0.256881 -0.0698287   
     length 3.73057  
     axis 0 0 0   XYZ 
    dof ry rz
    limits (-10.0 20.0)
           (-20.0 0.0)
  end
  begin
     id 25 
     name rhumerus
     direction -1 -4.48962e-011 -2.73982e-027  
     length 5.23908   
     axis 180 30 90   XYZ
    dof rx ry rz
    limits (-90.0 60.0)
           (-90.0 90.0)
           (-90.0 90.0)
  end
  begin
     id 26 
     name rradius
     direction -1 -4.48968e-011 -4.33218e-027   
     length 3.46485   
     axis 180 30 90   XYZ
    dof rx
    limits (-10.0 170.0)
  end
  begin
     id 27 
     name rwrist
     direction -1 -4.48989e-011 -6.32372e-027   
     length 1.73243   
     axis 3.57107e-015 -90 -90   XYZ
    dof ry
    limits (-180.0 0.0)
  end
  begin
     id 28
     name rhand
     direction -1 -4.48948e-011 -1.26448e-026   
     length 0.608752   
     axis 8.06912e-015 -90 -90   XYZ
    dof rx rz
    limits (-90.0 90.0)
           (-45.0 45.0)
  end
  begin
     id 29
     name rfingers
     direction -1 -4.48962e-011 -2.52913e-026   
     length 0.490792   
     axis 1.61381e-014 -90 -90   XYZ
    dof rx
    limits (0.0 90.0)
  end
  begin
     id 30
     name rthumb
     direction -0.707107 -6.34878e-011 0.707107   
     length 0.704682   
     axis -90 -45 1.62303e-014   XYZ
    dof rx rz
    limits (-45.0 45.0)
           (-45.0 45.0)
  end
:hierarchy
  begin
    root lhipjoint rhipjoint lowerback
    lhipjoint lfemur
    lfemur ltibia
    ltibia lfoot
    lfoot ltoes
    rhipjoint rfemur
    rfemur rtibia
    rtibia rfoot
    rfoot rtoes
    lowerback upperback
    upperback thorax
    thorax lowerneck lclavicle rclavicle
    lowerneck upperneck
    upperneck head
    lclavicle lhumerus
    lhumerus lradius
    lradius lwrist
    lwrist lhand lthumb
    lhand lfingers
    rclavicle rhumerus
    rhumerus rradius
    rradius rwrist
    rwrist rhand rthumb
    rhand rfingers
  end

#!OML:ASF G:\JayActor3\Patient Classification 1\Patient 1\Session 6\male.ASF
:FULLY-SPECIFIED
:DEGREES
255
root 49.345 15.7082 -25.3296 6.27745 -61.0557 -9.47248
lowerback 4.27017 -1.63275 0.229432
upperback -4.86578 -2.15193 0.91649
thorax -7.45469 -1.0592 1.06278
lowerneck -9.86979 1.33834 2.80174
upperneck 11.4916 1.57583 -1.66822
head 5.11133 0.770768 -0.862482
rclavicle -7.95139e-015 -1.47101e-014
rhumerus -48.6619 20.1989 -86.0862
rradius 44.6153
rwrist -4.08756
rhand -16.7385 -6.23229
rfingers 7.12502
rthumb 9.48763 -35.9987
lclavicle -7.95139e-015 -1.47101e-014
lhumerus -49.0522 -27.1086 89.2211
lradius 45.6147
lwrist 25.7516
lhand -11.9897 7.13691
lfingers 7.12502
lthumb 14.0669 36.6408
rfemur -7.69052 0.890494 20.0424
rtibia 34.7897
rfoot -22.683 -8.61022
rtoes -0.831793
lfemur 0.237377 9.27739 -13.9978
ltibia 23.2244
lfoot -20.6393 8.15949
ltoes 0.549685
256
root 49.3557 15.7077 -25.3166 6.32698 -61.0938 -9.56268
lowerback 4.28055 -1.61803 0.230398
upperback -4.83165 -2.13083 0.927449
thorax -7.42404 -1.04849 1.07092
lowerneck -9.94468 1.37537 2.82926
upperneck 11.5576 1.63188 -1.75777
head 5.14664 0.793087 -0.890319
rclavicle 7.61345e-014 3.97569e-015
rhumerus -48.4696 20.0457 -86.0048
rradius 44.339
rwrist -4.08031
rhand -17.1517 -6.3112
rfingers 7.12502
rthumb 9.08896 -36.0954
lclavicle 7.61345e-014 3.97569e-015
lhumerus -48.8559 -26.9037 89.1929
lradius 45.2973
lwrist 26.1562
lhand -12.2071 7.0391
lfingers 7.12502
lthumb 13.8575 36.5575
rfemur -7.74107 0.88419 20.0085
rtibia 34.89
rfoot -22.5754 -8.57009
rtoes -1.0024
lfemur 0.26254 9.29304 -14.0211
ltibia 23.233
lfoot -20.6761 8.19158
ltoes 0.606092
257
root 49.3666 15.7072 -25.3032 6.37958 -61.143 -9.65577
lowerback 4.29688 -1.59796 0.233308
upperback -4.80489 -2.10277 0.933583
thorax -7.40512 -1.03456 1.0726
lowerneck -9.97934 1.40581 2.87193
upperneck 11.5803 1.67816 -1.85138
head 5.16175 0.811129 -0.922831
rclavicle -4.75095e-014 4.37326e-015
rhumerus -48.3087 19.9197 -85.9527
rradius 44.0822
rwrist -4.03316
rhand -17.4121 -6.38384
rfingers 7.12502
rthumb 8.83773 -36.1788
lclavicle -4.75095e-014 4.37326e-015
lhumerus -48.7453 -26.7907 89.2281
lradius 45.0442
lwrist 26.544
lhand -12.3328 7.03697
lfingers 7.12502
lthumb 13.7363 36.5636
rfemur -7.7985 0.883572 19.9734
rtibia 34.9971
rfoot -22.4622 -8.52544
rtoes -1.16649
lfemur 0.290963 9.31086 -14.0452
ltibia 23.2405
lfoot -20.7189 8.2194
ltoes 0.704159
258
root 49.3774 15.7069 -25.2896 6.4417 -61.2037 -9.75362
lowerback 4.31574 -1.56912 0.242392
upperback -4.79121 -2.06327 0.929373
thorax -7.40246 -1.01562 1.05923
lowerneck -9.96024 1.43102 2.94157
upperneck 11.5582 1.71461 -1.94678
head 5.15396 0.825665 -0.961329
rclavicle 7.06679e-014 1.90833e-014
rhumerus -48.1967 19.8039 -85.9339
rradius 43.8544
rwrist -3.94926
rhand -17.5228 -6.43858
rfingers 7.12502
rthumb 8.73086 -36.238
lclavicle 7.06679e-014 1.90833e-014
lhumerus -48.7308 -26.7732 89.323
lradius 44.8546
lwrist 26.8871
lhand -12.3535 7.06569
lfingers 7.12502
lthumb 13.7164 36.5936
rfemur -7.86902 0.887786 19.9384
rtibia 35.1124
rfoot -22.3421 -8.48167
rtoes -1.342
lfemur 0.319406 9.33396 -14.0689
ltibia 23.2436
lfoot -20.7655 8.24429
ltoes 0.825342
259
root 49.3881 15.7066 -25.2757 6.50857 -61.2727 -9.85238
lowerback 4.33367 -1.54494 0.244726
upperback -4.7788 -2.03013 0.93229
thorax -7.40002 -0.999266 1.05775
lowerneck -9.93142 1.46379 3.00292
upperneck 11.5009 1.76218 -2.03841
head 5.13384 0.845659 -0.996531
rclavicle 1.78906e-014 8.34896e-015
rhumerus -48.1007 19.7353 -85.9299
rradius 43.6524
rwrist -3.82821
rhand -17.4923 -6.46973
rfingers 7.12502
rthumb 8.7603 -36.2679
lclavicle 1.78906e-014 8.34896e-015
lhumerus -48.7776 -26.7812 89.4606
lradius 44.7203
lwrist 27.1511
lhand -12.2802 7.11179
lfingers 7.12502
lthumb 13.787 36.6349
rfemur -7.9508 0.887506 19.9008
rtibia 35.2369
rfoot -22.2164 -8.42913
rtoes -1.5089
lfemur 0.350059 9.36279 -14.0927
ltibia 23.2389
lfoot -20.8135 8.26142
ltoes 0.969624
260
root 49.3985 15.7065 -25.2617 6.58535 -61.3496 -9.95606
lowerback 4.34659 -1.52641 0.239612
upperback -4.76493 -2.00457 0.945624
thorax -7.39237 -0.985966 1.07193
lowerneck -9.91477 1.503 3.05473
upperneck 11.4339 1.81966 -2.13093
head 5.11305 0.870033 -1.02966
rclavicle -2.80286e-014 -1.31198e-014
rhumerus -48.0128 19.7088 -85.9319
rradius 43.477
rwrist -3.67691
rhand -17.3964 -6.46034
rfingers 7.12502
rthumb 8.85286 -36.2546
lclavicle -2.80286e-014 -1.31198e-014
lhumerus -48.8727 -26.7947 89.6301
lradius 44.6393
lwrist 27.3081
lhand -12.1156 7.19124
lfingers 7.12502
lthumb 13.9456 36.7035
rfemur -8.04507 0.888529 19.864
rtibia 35.37
rfoot -22.084 -8.37182
rtoes -1.66321
lfemur 0.382439 9.40005 -14.1142
ltibia 23.2248
lfoot -20.8594 8.27436
ltoes 1.11446
261
root 49.4086 15.7066 -25.2476 6.66107 -61.428 -10.0535
lowerback 4.35317 -1.51237 0.22625
upperback -4.74995 -1.98546 0.963457
thorax -7.37933 -0.975311 1.09588
lowerneck -9.8995 1.54758 3.09413
upperneck 11.3461 1.88437 -2.21039
head 5.08607 0.898368 -1.05615
rclavicle 7.00716e-015 -3.97569e-015
rhumerus -47.9384 19.7029 -85.9367
rradius 43.3315
rwrist -3.49677
rhand -17.2441 -6.41652
rfingers 7.12502
rthumb 8.99976 -36.2045
lclavicle 7.00716e-015 -3.97569e-015
lhumerus -49.0057 -26.8289 89.8324
lradius 44.5916
lwrist 27.3692
lhand -11.8749 7.25651
lfingers 7.12502
lthumb 14.1775 36.7527
rfemur -8.14779 0.883428 19.822
rtibia 35.51
rfoot -21.9455 -8.30323
rtoes -1.79454
lfemur 0.416087 9.44481 -14.1377
ltibia 23.2019
lfoot -20.9019 8.27798
ltoes 1.26411
262
root 49.4184 15.707 -25.2333 6.73939 -61.5046 -10.1484
lowerback 4.35359 -1.50711 0.207004
upperback -4.72837 -1.97801 0.990279
thorax -7.35497 -0.969875 1.13339
lowerneck -9.9221 1.59631 3.10758
upperneck 11.2653 1.95575 -2.27546
head 5.06751 0.929667 -1.07322
rclavicle -1.14798e-014 1.03368e-014
rhumerus -47.8567 19.7301 -85.939
rradius 43.2108
rwrist -3.30706
rhand -17.0241 -6.35497
rfingers 7.12502
rthumb 9.21204 -36.1337
lclavicle -1.14798e-014 1.03368e-014
lhumerus -49.1478 -26.8692 90.0567
lradius 44.559
lwrist 27.3434
lhand -11.5808 7.30857
lfingers 7.12502
lthumb 14.461 36.7847
rfemur -8.25624 0.875351 19.7773
rtibia 35.6537
rfoot -21.8046 -8.22612
rtoes -1.90473
lfemur 0.447285 9.50178 -14.16
ltibia 23.1732
lfoot -20.9354 8.27051
ltoes 1.3915
263
root 49.4285 15.7076 -25.2187 6.81497 -61.5773 -10.2369
lowerback 4.35066 -1.50071 0.189376
upperback -4.70589 -1.9691 1.01457
thorax -7.32788 -0.963907 1.16705
lowerneck -9.94793 1.63776 3.12323
upperneck 11.173 2.0164 -2.33839
head 5.04571 0.955992 -1.09075
rclavicle 5.46658e-015 -1.03368e-014
rhumerus -47.7846 19.7366 -85.9317
rradius 43.1144
rwrist -3.10969
rhand -16.7056 -6.27577
rfingers 7.12502
rthumb 9.5194 -36.0407
lclavicle 5.46658e-015 -1.03368e-014
lhumerus -49.3057 -26.9566 90.3103
lradius 44.5345
lwrist 27.251
lhand -11.2459 7.38231
lfingers 7.12502
lthumb 14.7836 36.835
rfemur -8.3679 0.852644 19.7241
rtibia 35.7983
rfoot -21.6552 -8.13897
rtoes -2.02496
lfemur 0.476383 9.56927 -14.1848
ltibia 23.1421
lfoot -20.9645 8.25033
ltoes 1.51951
